<?xml version="1.0" encoding="UTF-8"?>
<svg id="Layer_1" xmlns="http://www.w3.org/2000/svg" version="1.1" viewBox="0 0 512 512">
  <!-- Generator: Adobe Illustrator 29.1.0, SVG Export Plug-In . SVG Version: 2.1.0 Build 142)  -->
  <defs>
    <style>
      .st0 {
        fill: #0077b6;
      }
    </style>
  </defs>
  <path class="st0" d="M496.1,504c-1.3,0-2.5-.3-3.6-.8l-55.4-27.7c-7-3.5-12.8-9-16.8-15.8l-35.8-61.9c26.8-11.4,52-26.4,75.2-44.7l39,67.4c3.5,6.2,5.4,13.1,5.4,20.1v55.4c0,2.7-1.5,5.3-3.8,6.8-1.3.8-2.7,1.2-4.2,1.2ZM16,504c-1.5,0-3-.4-4.2-1.2-2.3-1.4-3.8-4-3.8-6.8v-55.4c0-7,1.9-14,5.4-20.1l63.3-109.4-5-4.3c-12.7-11.1-24.3-23.2-34.3-35.8-4-5-5.9-11.3-5.1-17.6.7-6.4,3.9-12.1,8.9-16.1,4.3-3.4,9.4-5.3,14.9-5.3s14.2,3.3,18.8,9.1c5.7,7.1,12.1,14.1,18.8,20.8l7.4,7.2,76.6-132.4-1.7-3.8c-5.4-11.7-8.1-24.1-8.1-36.9,0-48.5,39.5-88,88-88s88,39.5,88,88-2.7,25.3-8.1,36.8l-1.7,3.8,51.9,89.6c-20.9,21-46.6,36.5-74.8,45.4l-55.3-95.5-79.9,138.1,9.5,3c22.8,7.2,46.5,10.9,70.5,10.9,70.8,0,136.8-31.7,181.1-87,4.6-5.7,11.4-9,18.8-9s10.7,1.8,15,5.3c10.3,8.2,12,23.4,3.7,33.8-53.6,66.7-133.4,105-218.7,105s-66.7-5.9-97.9-17.6l-6.3-2.4-60,103.7c-3.9,6.8-9.7,12.2-16.8,15.8l-55.4,27.7c-1.1.6-2.4.8-3.6.8ZM256,56c-22.1,0-40,17.9-40,40s17.9,40,40,40,40-17.9,40-40-17.9-40-40-40Z"/>
</svg>